# xmcd CD database file
#
# Track frame offsets:
#	150
#	26564
#	53972
#	76815
#	124447
#	168382
#	199446
#
# Disc length: 3419 seconds
#
# Revision: 2
# Processed by: cddbd v1.5.2PL0 Copyright (c) Steve Scherf et al.
# Submitted via: CDex 1.51
#
DISCID=5e0d5907
DTITLE=D¿em - List do R., vol.2
DYEAR=1995
DGENRE=Blues
TTITLE0=Autsajder
TTITLE1=Jesiony
TTITLE2=Abym mógl przed siebie i´s´c
TTITLE3=Czerwony jak cegla
TTITLE4=Modlitwa III - Pozwól mi
TTITLE5=Zloty Paw
TTITLE6=Niewinni i ja cz .I, II
EXTD=YEAR: 1995
EXTT0=
EXTT1=
EXTT2=
EXTT3=
EXTT4=
EXTT5=
EXTT6=
PLAYORDER=
